<?xml version="1.0" encoding="UTF-8"?>
<svg id="Layer_1" data-name="Layer 1" xmlns="http://www.w3.org/2000/svg" viewBox="0 0 1200 2000">
  <defs>
    <style>
      .cls-1 {
        fill: #914e26;
      }
    </style>
  </defs>
  <g id="npeXMd">
    <g id="Group_641" data-name="Group 641">
      <path id="Path_751" data-name="Path 751" class="cls-1" d="M484.9-214.16l-25.24-14.42-27.47,25.22c-11.95-32.1-41.04-35.84-71.66-27.62l-57.96-44.82c23.62,0,42.2-1.1,60.4,.19,117.7,8.38,181.21-54.81,203.51-115.72,15.6-42.53,16.01-87.42,27.39-131.43,2.73,40.48,5.38,80.93,8.36,121.4,.79,10.75,1.24,21.61,3.97,32.18,13.49,51.83,37.48,61.36,115.51,47.46,12.83-2.29,26.6-2.37,43.65-3.77l-9.97,38.33c40.63,13.12,96.02-16.84,122.05,28.43-24.29,4.12-56.18,4.85-79.31,14.5-39.97,16.63-56.1-9.54-78.82-16.57-63.5-19.65-97.05-10.86-99.29,33.18-.67,12.61-.12,25.22-.12,40.69,18.45-1.72,31.11-2.59,43.57-4.12,12.58-1.56,24.99-3.77,43.6-6.66l-46.95,51.28h223l-66.73,27.38,80.8,31.5-93.7,17.57,68.96,55.16c-29.12-5.71-53.2-6.36-68.84-14.2-79.02-39.53-87.13-39.61-163.26,16.06L714.75-1.24l23.58,36.97c1.82-1.1-5.05,3.07-15.35,9.35l46.91,11.32-1.32,7.25-129-13.08c-12.83,41.29,.67,53.82,67.31,53.41,31.44-.19,63.05-5.17,94.08-9.46,16.76-2.32,54.12,10.73,66.78,18.59,17.05,10.59,40.46,16.87,61.14,24.98l11.3-6.41-5.09,22.5,5.05-8.17c74.05,52.85,171.98,56.08,272.1,54.81l-3.47,13.45-64.66,3-69.92,40.31,43.73,11.05c-24.78,4.85-39.26,10.32-53.41,9.97-37.31-.92-71.78-6.12-60.07-39.24-45.76-6.74-81.42-42.9-137.89-16.36l56.22,28.89-5.17,9.92c-23.25-3.26-48.49-3.91-69.17-10.56-20.67-6.82-40.06-17.02-57.38-30.18-24.91-18.86-48.28-25.74-76.62-3.23l-25.81-23.18c-88.62,32.39-57.55,85.89-64.62,139.06,39.84,3.15,77.69,6.01,115.51,9.22,7.82,.65,19.23,.92,22.5,4.15,27.84,27.7,67.11,22.18,110.09,15.16v21.78h83.95l1.49,4.1-43.77,9.7,12.17,16.14-132.1,5.85c88.49,43.77,193.17,34.79,292.96,49.53l-3.23,14.23,56.97-5.36-52.12,21.5,2.19,4.82,194.94-10.17,1.83,12.45-91.48,2.96-2.4,5.9,33.18,13.12,1.36,7.63-243.97,14.88,4.22,37.43c-36.62-2.32-73.69-9.62-95.69,15.82-1.12,1.27-20.15-1.13-25.69-4.99-25.24-17.54-47.83-36.73-73.19-54.2-8.94-6.14-24.2-13.61-34.71-12.56-38.44,3.77-57.96-4.45-53.16-30.27h-77.26c-10.71,15.98-5.91,23.74,25.94,29.4,45.43,8.06,88.42,21.94,143.77,36.24l-73.44,17.41,76.7,32.07c-43.69,10.19-61.52,5.36-100.16-16.36-13.03-7.3-39.76-7.81-58.66-5.63-9.47,1.1-20.81,14.9-21.93,23.44-3.02,23.44-1.03,47.16-1.03,65.7l117.28,25.71c1.45,26.22,47.08,43.28,104.22,37.51,28.18-2.86,56.22-6.14,84.32-9.24l5.83,9.35-57.39,26.16,197.76,9.43,2.48,10.38-93.66,18.24-2.98,7.95,140.16,22.85-13.11,24.33,166.52-11.75-34.13,42.74h169.67c-57.1,36.68-140.87,19.11-201.8,47.54l18,29.11-118.98-23.8-25.28,26.22-74.26-28.05c-.33-21.16-21.39-37.19-72.81-34.12l30.5,31.94-66.2-3.93v28.57l-63.17-28.33-6.29,2.86,33.35,42.55c-27.72-8.33-42.54-15.2-58.59-16.87-14.72-1.51-30.83,2.59-50.93,4.67l-3.21-32.72-92.22-22.07-6.5,7.68,69.79,31.85-78.03-7.22c-25.4,55.99-.25,74.41,90.4,81.2,32.77,2.43,79.89-14.23,90.89,25.25,1.04,3.69,23.12,4.9,43.61,8.87l-60.07,14.47,1.5,8.51,91.02-4.74-22.22,20.18,33.02,14.98-3.77,6.52-121.22-15.55-15.51,22.8-120.39-37.24-16.76,12.61c11.38,9.54,19.78,22.66,34.71,28.05,87.71,31.64,184.85,39.53,282.82,40.23,25.23,.19,51.38-11.51,75.75-19.54,15.72-5.15,28.92-13.5,47.37-22.42,17.42,39.48,64.21,14.74,101.45,23.58l-70.62,39.1c60.57,15.36,92.18-11.7,135.16-27.92l-3.89,28.11,110.71,3.8,2.65,9.05c-15.18,3.48-30.03,8-45.68,10.19-29.04,4.01-58.58,6.55-87.87,9.89-50.14,5.71-87.29,20.13-96.15,56.62-1.12,4.55-20.48,7.25-32.14,11.02,12.37,28.86,42.53,22.48,71.2,16.52,51.38-10.65,102.39-22.04,153.52-33.12l8.15,8.65-54.2,33.52,70.46,38.29-6.7,9.17c-23.25-7.54-50.55-12.21-68.76-23.28-26.1-15.85-46.41-22.04-74.34-3.21-31.48,21.24,4.3,29.08,17.75,41.45,3.72,3.42,7.98,6.57,17,13.93l-59.75-4.1-12.29,24.41-47.25-1.48c-18-35.73-48.69-71.6-120.47-93.24l5.38,37.43-10.89,6.28c-23.08-14.69-45.22-30.1-69.59-43.83-17.83-10-36.94-21-58.49-25.76-36.12-8.03-64-3.37-62.8,28.54,.62,17.25,12.7,33.23,38.35,38.11l-17.79,19.54,5.05,8.17,95.07-13.58-3.85-5.67,63.59,16.6c-7.2,9.78-18.08,21.48-23.21,34.15-1,2.5,19.66,11.97,31,12.53,13.82,.7,29.46-3.23,42.36-7.6,42.45-14.33,76.37-14.39,90.36,24.01l206.28-23.07-55.81,29.19,25.16,14.58-28.67,12.29,7.2,10.03,127.72-33.85c-23.83,45.16-55.31,58.82-166.27,69.12l6.83,26.98c-65.32,13.72-99.54-29.13-155.48-31-46.25,30.94-54.99,31.07-92.22-.94l-17.58,13.8-51.18-40.02-14.14,7.68,30.83,30.78c-40.01,23.36-53.83-.38-72.4-17.11l-45.39,14.17c11.05-30.16-4.14-46.94-56.18-51.15l32.02,27.84-78.54,16.46-43.28-30.21c-22.83,39.13-9.27,59.85,48.83,76.72,18.5,5.36,31.07,20.05,49.69,24.33,45.26,10.4,90.23,8.11,133.71-8.22,18.25-6.85,41.42-8.17,62.35-12l6.67,11.88-102.56,37.03c116.01,7,226.55-10.89,352.74,12.07l-116.92,33.66,53.62,8.25-61.52,33.58c7,4.18,10.51,7.03,11.42,6.71,55.77-19.67,117.78-6.41,175.67-14.42,27.3-3.75,45.09-2.4,29.21,19.48l152.58-22.8,10.89,14.93c-26.97,10.94-54.37,21.51-80.76,33.01-17.21,7.5-32.98,16.36-49.4,24.6l22.26,17.81-23.38,9.59c36.9,9.65,66.86,12.1,106.28,.81,28.96-8.3,72.28,4.77,114.02,8.79-37.69,12.8-72.07,24.36-106.32,36.08-39.02,13.31-77.53,27.22-117.08,39.75-8.52,2.7-26.11,3.26-29.96,.03-7.86-6.66-13.94-16.95-12.33-25.03,4.68-23.23-5.5-34.95-54.11-32.26l24.74,32.58-95.08,16.5,2.07,6.52,84.52,18.03-12.66,16.84c62.97,4.29,121.8,8.3,188.19,12.83-57.67,30.21-124.82,36.14-188.94,46.49-5,.81-16.55-4.26-18.25-7.92-14.11-30.05-46.17-28.76-84.23-19.51l-15.01-27.49q-24.7,8.41,1.41,51.49l-99.42-9.49c-7.7-8.25-20.15-17.89-25.86-29-3.89-7.57-.58-17.65,3.27-25.84,8.65-18.38,7.4-32.45-19.82-45.41-15.1-7.22-21.84-21.91-32.35-33.23l-21.27,8.35-5.75,43.25-85.93-27.08c-24.04,12.96,26.64,42.47-40.83,41.07l7.9,8.97,102.49,22.75-68.6,17.89-72.15-17.19-5.96,6.71-25.33-45.65-36.82,56.81-19.77-16.01v90.01l64.17-20.7c6.95,16.01,9.64,32.29,21.22,45.16,7.24,8.08,27.18,13.74,42.74,15.44,12.9,1.43,27.72-4.53,44.35-7.73v21.29l73.76-4.93,4.63,7.22-146.29,39.91,112.37,9.08,2.86,6.47c-16.83,4.47-33.39,9.51-50.6,13.18-14.07,3-35.66,1.05-42.36,6.9-41.42,36.14-52.5,13.36-69.01-14.39-20.68,20.78,1.53,39.56,6.12,61.69l-51.47,3.8v168.89l55.72-13.15c17.96,31.85-22.42,41.39-46,58.66-11.71,8.6-12.04,25.76-11.79,39.02,3.77,236.02,8.05,472.04,12.87,708.07,.21,10.54,.04,21.05,.04,33.71h-185.77c0-14.74,.12-27.27,0-39.8-2.9-279.13-6.37-558.27-7.9-837.44-.17-29.67-13.78-51.66-48.94-69.77-11.13-5.74-17.5-15.41-26.07-23.29l9.18-7.6,77.57,22.85c-6.17-21.07-4.67-47.24-16.42-50.07-30.91-7.41-67.6-4.69-110.17-6.33,.58,.65-4.84-5.52-10.55-12-73.19,3.67-58.67,62.14-117,78.48l-16.8-44.49-67.85,47.43c-15.43-34.44-40.17-40.94-81.5-23.9-15.18,6.25-38.55,4.07-60.77-1.48l59.87-29.08-71.2-26.87c33.55-23.61,83.24,34.74,109.88-9.38-40.58-21.18-38.76-32.69,9.27-53.63l-25.03-13.26c68.72,17.5,82.65-33.71,135.53-43.09l-28.92,42.66,47.58,5.01-16.13,24.87,6.04,3.42,50.97-37.7-13.61-12.26c57.84-15.04,117.54-27.14,171.36-46.24,20.32-7.22,34.67-30.02,38.19-46.89,6.08-29.62,1.69-60.12,1.69-93.38-12.33,3.5-22.83,6.5-33.38,9.51-13.74-8.33-27.47-16.71-43.36-26.36-44.35,38.35,36.08,35.52,38.35,63.79l-63.67-25.36c-22.39,19.62-74.35,29.13-34.63,66.97,10.26,9.76-10.67,33.39-20.07,57.97l-49.85-57.4c-22.34,11.37-43.61,23.9-67.44,33.77-18.66,7.73-40.54,12.13-66.77,13.02l63.8-57.13q-36.12-13.9-73.44,9.41l-9.76-5.09c14.1-10.03,25.73-22.85,42.94-29.33,20.31-7.65,45.51-9.83,74.35-15.52-48.03-35.71,21.39-34.44,34.46-60.45-43.81-1.7-83.86-3.21-130.4-4.99l11.83,26.63c-43.52,24.47-87.46-44.44-130.81,7.92l54.07,19.7-56.64,24.44,48.82,6.63c-22.96,8.68-38.31,12.91-50.56,19.57-12.12,6.6-21.1,15.63-31.44,23.61,17.16,1.54,34.26,3.5,51.51,4.33,4.67,.22,9.72-3.13,12.83-4.23-6.12,19.35-13.86,36.92-16.8,54.84-5.33,32.04-47.28,17.81-71.74,24.31-16.05,4.23-76.49,24.39-87.71,32.96-13.7,10.51-32.02,18.46-48.37,27.49l-18.37-7.79,13.36-53.41-130.57,47.91c-29.37-50.16-99.04-10.51-157.46-31l131.02-29.05-16.88-20.16,43.6-18.16q-74.18-27.68-79.81-44.2c37.98-4.96,76.08-9.73,113.98-15.09,5.71-.81,15.51-5.47,14.93-6.66-11.29-24.07,20.19-25.52,44.06-30.97l-5.38-10.17-67.97,6.98,30.9-25.87-79.85-14.93c62.89-15.44,113.48-27.83,168.51-41.31l-44.47-21.05,107.28-33.28,3.31-14.25H1.01l-49.19-29.03,58.99-27.16c26.64,41.93,60.69,16.36,93.87,4.8,24.16,25.3,53.04,39.05,103.47,18.06-14.73-3.07-24.33-3.83-31.73-6.87-14.56-5.96-27.88-13.2-41.74-19.92,20.11-6.28,39.47-14.09,60.57-18.33,12.17-2.42,27.06,.97,40.71,1.75l2.77-9.54-35.62-18.97,2.03-6.55,115.01,7.33,2.81-6.55-29.04-14.63c50.85-19.83,121.59-19.33,146.33-65.05,62.3-4.72,88.65-23.61,73.14-103.46-29.78,15.01-61.97,23.96-76.12,39.78-36.28,40.61-95.41,60.34-156.96,80.93l65.12-54.68-14.77-11.4-206.9,65.4-7.7-6.39,23.33-26.65-106.2,23.17-65.99-10.94,8.15-21.26,68.35-5.55-1.17-3.58H117.91l2.15-10.32-108.23-14.9,.74-6.5,207.11-6.12-8.77-19.49c46.01-11.02,92.01-20.91,136.53-33.18,20.77-5.71,54.66-10.89,29-32l100.04-26-1.82-8.38-42.45-6.09c30.16-34.66,93.46-56.86,82.12-102.7-46.13,9.19-46.49,9.62-57.05,40.85-1.65,4.93-5.42,13.45-9.15,13.66-61.81,3.5-53.16,36.49-70.99,67.62l-20.11-29.32-107.65,78.85-13.4-12.8c-67.97,17.76-136.31,35.6-210.09,54.87l40.46-24.04-51.67-15.44,188.28-43.79-6.17-14.44-79.15,12.15-8.65-17.92c60.03-11.86,137.31-58.56,137.31-83.35l-148.48,62.47L1.44,1365.84l91.23-19.27q-35.37-19.92-189.19-29.7l56.89-21.07-44.68-31.29,62.3-5.09-9.81-38.33c18.25,8.68,29.5,14.18,41.04,19.4,9.43,4.29,19.11,11.64,28.92,11.8,89.99,1.37,180.67,5.67,269.74-.14,34.66-2.26,66.77-27.3,97.97-43.63,16.34-8.54,25.07-25.95,42.57-30.35,68.8-17.22,78.4-52.15,75.46-92.92-1.2-16.06-.21-32.21-.21-51.04l-69.42,18.19-13.2-6.12c100.74-26.84,88.16-79.66,82.99-132.08l-70.46,8.92c1.78,9.46-2.07,23.85,6.42,28.33,32.52,17.08,14.02,26.35-7.86,37.05-17.58,8.6-43.4,15.52-18.33,34.39,1.78,1.35-2.98,8.17-7.17,10.86-43.4,28.19-87.29,56.03-131.06,83.95l-12.29-7.68,54.69-41.39-7.07-7.76-154.93,39.48c57.92-41.77,151.63-49.83,211.03-103.38l-66.69,8.17,81.58-88.69-12.58-5.23c-11.71,9.89-23.62,19.7-35.08,29.73-16.71,14.63-25.07,36.6-67.27,26.14-7.53-1.86-22.59,10.78-35.16,15.63-44.47,17.14-89.45,33.8-134.21,50.61l-10.34-8.97,44.6-30.94c-82.95,10.32-155.06,11.16-221.71-20.02,27.76-1.1,55.77-1.13,83.24-3.56,31.07-2.75,61.93-6.9,92.43-11.72,63.21-10.02,70.79-20.37,41.78-57.97,7.57-1.83,16.3-2.45,21.55-5.58,7.28-4.33,11.88-10.56,17.62-15.95-8.69-3.83-16.96-10.32-26.1-10.89-24.12-1.56-48.66-.54-83.86-.54l27.72-22.85-68.55-42.49,6.17-4.33,123.7,22.37,7.57-10.17-19.12-25.14c4.18-.78,8.44-2.48,12.2-2.1,105.29,10.57,199.16-6.58,282.65-49.16,2.61-1.32,5.21-2.67,7.98-3.83,25.7-10.67,68.06-18.51,73.64-32.55,11.5-29.05,3.48-61.42,3.48-93.67-35.25,.83-65.36,2.83-71.78,32.37-4.51,20.78-81.3,58.07-114.02,57.99-6.74-.03-16.67-3.12-19.2-6.63-2.19-3.07,1.99-10.91,6.83-12.72,13.53-5.09,32.23-5.93,42.45-12.64,9.31-6.12,10.22-17.71,16.01-29.27-59.61-9.08-104.84,47.51-170.57,20.54l52.83-26.71-9.31-7.17c47.25-6.87,101.03-3.02,136.07-37.08l-60.2-10.17c68.14-16.28,147-8.51,179.1-59.91-41.7-18-70.04-13.99-87.17,15.14-26.27-9.03-43.19-19.73-72.24,3.96-22.92,18.7-73.02,23.26-123.12,37.54l50.35-43.23-7.37-5.04-124.73,42.88-91.76-39.21c93.95-12.1,164.12-53.47,239.95-89.12l-5.75-9.81H121.33c.17,.89-1.41-7.14-4.06-20.48l-35.37,24.58-25.48-70.49h51.01l1.28,.97c21.68,.92,43.52,.97,64.95,2.96,43.94,4.07,89.9-14.01,132.43,5.2,3.06,1.14,6.36,1.51,9.6,1.05,59.45-9.33,121.01-15.17,177.64-29.35,57.34-14.36,70.82-37.99,41.33-117.44-26.73,.59-52.17,23.5-83.07-.35-7.32-5.63-45.59,6.55-69.92,9.24-20.64,2.26-41.74,2.64-62.63,3.88l-2.4-10.81,67.16-13-10.34-4.39,33.26-46.19-45.43-16.33c36.28,0,61.15,2.75,83.82-.65,32.68-4.91,66.82-11.13,94.82-22.53,31.48-12.8,23.29-34.39-11.79-42.31-64.04-14.44-101.23-6.9-143.22,25.74-13.16,10.21-31.78,20.59-50.76,23.88-57.67,10-115.72,17.71-141.32,62.55l-9.72-7.09,11.05-18.97-128.25-17.6,2.19-12.83h114.31l-45.67-35.01h100.04l10.26-11.86-71.78-30.24,8.15-7.41,174.13-7.38-1.2-15.9c-11.92,.51-23.83,1.08-35.79,1.51-13.94,.54-39.17,3.21-40.16,1.13C266.63-.4,230.72-8.1,185-7.7l5.46-13.74c47.41,.4,94.82,1.46,142.2,.94,17.42-.19,34.75-4.04,64-7.73l-60.32-29.51,171.36-23.07-1.83-18.57c-28.01-.78-56.02-1.86-84.02-2.24-29.42-.38-58.87-.08-88.29-.08l-1.49-11.05c30.62-5.55,61.48-10.62,91.8-16.76,154.03-31.18,145.54-43.49,136.61-143.64l-75.58,58.99Zm-30.2,1868.75c5.59,16.25,6.71,31,16.18,42.96,5.79,7.33,24.28,10.43,41.2,17.03v-81.63l-12.91-1.78-12.33,29.75-32.14-6.33Zm193-230.93c38.97-28.08,31.11-48.08,4.3-66.83l51.63-21.59-55.93-26.09v114.51Zm300.11,365.16l78.53,20.24c-2.03-15.93,2.85-35.27-6.29-38.73-29.79-11.21-58.95-7.49-72.24,18.49ZM298.52,459.14l7.12,7.41c14.11,3.58,27.88,8.06,42.49,10.51,10.76,1.78,26.02,3.93,33.06,.51,8.61-4.2,14.15-14.09,14.06-21.48-.04-3.1-18.58-9.41-27.43-8.57-23.47,2.21-46.26,7.55-69.31,11.62Zm163.46,342.66c16.59,.65,35.25,4.2,50.14,.78,7.95-1.83,13.98-16.16,12.29-24.09-1.57-7.44-14.39-13.9-22.26-20.78l-26.11-4.01c46.58,35.2-12.95,25.79-14.06,48.1Zm183.52,73.6c20.07-14.79,29.58-21.96,39.43-28.94,7.2-5.09,14.81-9.92,22.26-14.88-9.48-1.51-18.83-3.48-28.47-4.39-10.47-1.02-21.18-1.1-39.09-1.91l5.87,50.12Zm23.09,992.99l48.86-19.38-48.86-40.8v60.18Z"/>
    </g>
  </g>
</svg>